<?xml version="1.0" encoding="UTF-8"?>
<svg xmlns="http://www.w3.org/2000/svg" xmlns:xlink="http://www.w3.org/1999/xlink" width="595pt" viewBox="0 0 595 595" version="1.1">
<defs>
<clipPath id="clip1">
  <path d="M 12.910156 306.90625 L 589.03125 306.90625 L 589.03125 535.101563 L 12.910156 535.101563 Z M 12.910156 306.90625 "/>
</clipPath>
</defs>
<g id="surface1">
<g clip-path="url(#clip1)" clip-rule="nonzero">
<path style=" stroke:none;fill-rule:nonzero;fill:rgb(0.392151%,0.784302%,0.784302%);fill-opacity:1;" d="M 589.027344 491.40625 L 589.027344 477.722656 L 526.0625 440.996094 L 526.0625 455.890625 L 575.648438 484.644531 L 526.0625 513.230469 L 526.0625 526.917969 Z M 520.675781 475.296875 L 520.675781 474.289063 C 520.574219 470.964844 519.757813 467.9375 518.265625 465.21875 C 516.761719 462.496094 514.570313 460.085938 511.6875 457.96875 C 508.792969 455.742188 505.6875 454.113281 502.347656 453.0625 C 499.019531 452.007813 495.464844 451.480469 491.691406 451.480469 C 488.6875 451.480469 485.980469 451.75 483.535156 452.3125 C 481.085938 452.863281 478.875 453.707031 476.867188 454.800781 C 474.878906 455.917969 473.144531 457.066406 471.707031 458.214844 C 470.257813 459.382813 469.042969 460.628906 468.039063 461.960938 C 467.042969 460.304688 465.882813 458.835938 464.539063 457.558594 C 463.210938 456.28125 461.761719 455.195313 460.210938 454.308594 C 458.65625 453.417969 456.65625 452.722656 454.226563 452.226563 C 451.777344 451.730469 448.941406 451.480469 445.722656 451.480469 C 441.164063 451.480469 437.066406 452.117188 433.390625 453.394531 C 429.738281 454.660156 426.507813 456.589844 423.738281 459.132813 C 420.949219 461.695313 418.898438 464.488281 417.570313 467.546875 C 416.25 470.605469 415.574219 473.847656 415.574219 477.296875 L 415.574219 532.421875 L 430.0625 532.421875 L 430.0625 483.792969 C 430.0625 481.574219 430.320313 479.398438 430.816406 477.296875 C 431.316406 475.183594 432.058594 473.1875 433.0625 471.292969 C 434.054688 469.40625 435.628906 467.910156 437.722656 466.796875 C 439.832031 465.6875 442.503906 464.96875 445.722656 464.632813 C 448.269531 464.632813 450.554688 465.082031 452.554688 465.964844 C 454.546875 466.859375 456.210938 468.1875 457.546875 469.96875 C 458.878906 471.746094 459.875 473.6875 460.542969 475.796875 C 461.214844 477.902344 461.542969 480.183594 461.542969 482.628906 L 461.542969 532.421875 L 475.863281 532.421875 L 475.863281 480.125 C 475.863281 479.90625 476.09375 478.851563 476.199219 478.628906 C 476.535156 476.847656 477.117188 475.15625 477.953125 473.539063 C 478.785156 471.9375 479.925781 470.410156 481.359375 468.960938 C 482.804688 467.519531 484.390625 466.433594 486.113281 465.71875 C 487.835938 465 489.699219 464.632813 491.691406 464.632813 C 493.253906 464.632813 494.742188 464.90625 496.195313 465.46875 C 497.625 466.023438 498.96875 466.859375 500.1875 467.964844 C 501.402344 469.070313 502.464844 470.238281 503.347656 471.460938 C 504.242188 472.683594 504.910156 473.964844 505.351563 475.296875 C 505.464844 475.746094 505.574219 476.144531 505.65625 476.523438 C 505.761719 476.976563 505.816406 477.277344 505.859375 477.632813 C 505.910156 478.117188 506.023438 481.308594 506.023438 481.371094 L 506.023438 532.421875 L 520.675781 532.421875 C 520.675781 532.421875 520.664063 475.5625 520.675781 475.296875 M 255.417969 436.957031 L 492.519531 436.957031 L 492.519531 431.628906 L 255.417969 431.628906 L 255.417969 423.671875 L 255.457031 423.671875 L 255.457031 391.195313 C 255.457031 386.300781 254.925781 382.0625 253.875 378.449219 C 252.820313 374.847656 251.175781 371.875 248.953125 369.546875 C 246.855469 367.316406 244.34375 365.378906 241.457031 363.71875 C 238.578125 362.050781 235.347656 360.710938 231.800781 359.71875 C 231.800781 359.71875 232.363281 359.496094 232.472656 359.382813 C 233.027344 359.152344 233.519531 358.914063 233.972656 358.632813 C 234.417969 358.355469 234.917969 358.050781 235.472656 357.714844 C 235.910156 357.382813 236.382813 357.054688 236.878906 356.71875 C 237.386719 356.382813 237.847656 355.992188 238.296875 355.550781 C 239.296875 354.65625 240.214844 353.742188 241.039063 352.804688 C 241.871094 351.851563 242.628906 350.882813 243.300781 349.886719 C 243.625 349.332031 243.964844 348.808594 244.292969 348.308594 C 244.632813 347.796875 246.179688 344.277344 246.289063 343.730469 L 261.957031 306.910156 L 242.292969 306.910156 L 229.136719 337.394531 C 228.238281 339.835938 227.222656 342.171875 226.054688 344.386719 C 224.894531 346.613281 223.585938 348.660156 222.136719 350.5625 C 221.363281 351.546875 220.617188 352.410156 219.898438 353.125 C 219.175781 353.859375 218.472656 354.488281 217.808594 355.054688 C 217.027344 355.609375 216.285156 356.023438 215.5625 356.300781 C 214.847656 356.585938 212.65625 356.785156 212.148438 356.71875 L 196.332031 356.71875 L 196.332031 306.910156 L 179.335938 306.910156 L 179.335938 423.671875 L 196.332031 423.671875 L 196.332031 371.207031 L 216.148438 371.207031 C 220.03125 371.207031 223.390625 371.976563 226.226563 372.871094 C 229.054688 373.753906 231.257813 375.253906 233.136719 377.039063 C 234.773438 378.59375 236.53125 380.300781 237.769531 382.375 C 239.0625 384.5 239.808594 388.097656 239.808594 390.863281 L 239.808594 417.367188 L 239.773438 417.367188 L 239.773438 431.628906 L 57.191406 431.628906 L 57.191406 436.957031 L 239.773438 436.957031 L 239.773438 508.273438 L 239.867188 510.695313 C 239.867188 510.976563 240.730469 515.609375 241.679688 518.261719 C 242.625 520.933594 243.984375 523.429688 245.769531 525.761719 C 247.542969 528.09375 249.8125 529.816406 252.59375 530.929688 C 255.367188 532.03125 258.636719 532.421875 262.421875 532.421875 L 284.40625 532.421875 L 284.40625 517.933594 L 265.917969 517.933594 C 263.253906 517.933594 261.171875 518.015625 259.667969 517.515625 C 258.175781 517.027344 257.199219 516.222656 256.75 515.105469 C 256.300781 513.992188 255.96875 512.824219 255.753906 511.605469 C 255.535156 510.378906 255.417969 508.996094 255.417969 507.445313 L 255.417969 466.796875 L 285.738281 466.796875 L 285.738281 452.476563 L 255.417969 452.476563 Z M 432.503906 308.234375 L 416.691406 308.234375 L 416.691406 378.03125 C 416.691406 382.699219 416.25 387.035156 415.359375 391.027344 C 414.464844 395.027344 413.132813 398.6875 411.359375 402.015625 C 409.582031 405.472656 407.15625 408.011719 404.109375 409.679688 C 401.0625 411.347656 397.421875 412.1875 393.199219 412.1875 L 390.792969 412.1875 C 389.960938 412.1875 389.089844 412.121094 388.203125 412.011719 C 387.320313 411.902344 386.40625 411.738281 385.460938 411.515625 C 384.507813 411.289063 383.597656 411.019531 382.707031 410.679688 C 380.714844 410.128906 378.820313 409.292969 377.046875 408.183594 C 375.265625 407.074219 373.554688 405.625 371.882813 403.855469 C 370.226563 402.085938 368.851563 399.828125 367.796875 397.105469 C 366.738281 394.390625 365.992188 391.136719 365.558594 387.363281 C 365.558594 387.363281 365.378906 385.8125 365.378906 385.699219 L 365.378906 384.695313 C 365.378906 380.816406 365.96875 377.34375 367.132813 374.292969 C 368.300781 371.234375 369.933594 368.601563 372.042969 366.375 C 374.265625 364.15625 376.578125 362.382813 378.960938 361.046875 C 381.351563 359.71875 383.867188 358.882813 386.542969 358.546875 L 386.867188 358.546875 C 386.980469 358.546875 387.097656 358.496094 387.214844 358.386719 L 389.199219 358.386719 C 390.871094 358.386719 392.527344 358.496094 394.203125 358.710938 C 395.871094 358.933594 397.53125 359.324219 399.195313 359.878906 C 400.863281 360.320313 402.410156 360.792969 403.863281 361.296875 C 405.308594 361.796875 406.585938 362.324219 407.683594 362.878906 C 407.914063 362.992188 408.113281 363.101563 408.277344 363.21875 C 408.449219 363.320313 408.640625 363.386719 408.863281 363.386719 C 408.96875 363.492188 409.125 363.601563 409.375 363.71875 C 409.582031 363.820313 409.746094 363.9375 409.859375 364.039063 C 410.191406 364.15625 410.5 364.296875 410.777344 364.460938 C 411.054688 364.625 411.304688 364.71875 411.527344 364.71875 L 411.527344 349.21875 C 410.519531 348.546875 409.375 347.914063 408.027344 347.296875 C 406.6875 346.691406 405.191406 346.171875 403.535156 345.726563 C 401.859375 345.175781 399.722656 344.746094 397.121094 344.472656 C 394.507813 344.199219 391.425781 344.058594 387.871094 344.058594 C 386.980469 344.058594 386.0625 344.082031 385.125 344.140625 C 384.175781 344.199219 383.273438 344.332031 382.371094 344.5625 C 381.378906 344.671875 380.410156 344.859375 379.460938 345.136719 C 378.507813 345.414063 377.597656 345.726563 376.707031 346.054688 C 373.59375 347.171875 370.539063 348.78125 367.554688 350.882813 C 364.542969 352.996094 361.726563 355.609375 359.058594 358.710938 C 356.394531 361.828125 354.390625 365.457031 353.066406 369.625 C 351.722656 373.777344 351.113281 378.476563 351.230469 383.695313 L 351.230469 389.367188 C 351.230469 389.917969 351.285156 390.472656 351.390625 391.027344 C 351.496094 391.582031 351.613281 392.140625 351.722656 392.6875 C 352.28125 396.804688 353.449219 400.742188 355.222656 404.523438 C 356.996094 408.296875 359.445313 411.902344 362.554688 415.347656 C 365.667969 418.789063 369.65625 421.394531 374.546875 423.167969 C 379.441406 424.949219 385.207031 426.011719 391.875 426.339844 L 393.867188 426.339844 C 398.640625 426.339844 402.914063 425.753906 406.6875 424.585938 C 410.476563 423.421875 413.746094 421.617188 416.523438 419.183594 C 419.296875 416.738281 421.710938 414.183594 423.773438 411.515625 C 425.820313 408.851563 427.523438 406.015625 428.855469 403.023438 C 429.523438 401.472656 430.070313 399.886719 430.511719 398.269531 C 430.953125 396.667969 431.335938 395.136719 431.679688 393.691406 C 432.007813 392.140625 432.265625 390.699219 432.429688 389.367188 M 345.230469 385.863281 C 345.335938 385.527344 345.390625 385.144531 345.390625 384.695313 L 345.390625 383.363281 C 345.390625 376.707031 344.453125 370.867188 342.566406 365.878906 C 340.683594 360.875 337.898438 356.71875 334.246094 353.382813 C 330.460938 350.167969 326.539063 347.578125 322.488281 345.644531 C 318.445313 343.699219 314.199219 342.398438 309.757813 341.726563 L 309 341.726563 C 308.734375 341.726563 308.480469 341.667969 308.253906 341.554688 L 305.671875 341.554688 C 305.394531 341.554688 305.144531 341.496094 304.917969 341.390625 L 303.425781 341.390625 C 298.203125 341.390625 293.238281 342.308594 288.511719 344.140625 C 283.796875 345.964844 279.320313 348.71875 275.105469 352.386719 C 271.003906 356.050781 267.890625 360.320313 265.78125 365.207031 C 263.667969 370.09375 262.613281 375.59375 262.613281 381.707031 L 262.613281 382.03125 C 262.613281 387.933594 263.472656 393.421875 265.199219 398.519531 C 266.914063 403.628906 269.5 408.296875 272.949219 412.515625 C 276.386719 416.738281 280.851563 419.875 286.351563 421.929688 C 291.847656 423.980469 298.367188 425.003906 305.921875 425.003906 C 311.261719 425.003906 316.085938 424.230469 320.417969 422.667969 C 324.746094 421.117188 328.46875 418.734375 331.570313 415.515625 C 334.796875 412.28125 337.429688 408.871094 339.492188 405.269531 C 341.546875 401.664063 343.070313 397.855469 344.074219 393.859375 C 344.28125 392.96875 344.488281 392.082031 344.644531 391.195313 C 344.820313 390.308594 344.953125 389.429688 345.066406 388.535156 C 345.066406 388.085938 345.097656 387.644531 345.144531 387.195313 C 345.199219 386.753906 345.230469 386.300781 345.230469 385.863281 M 329.574219 382.03125 C 329.574219 387.585938 328.9375 392.269531 327.660156 396.105469 C 326.386719 399.945313 324.460938 402.855469 321.917969 404.851563 C 319.351563 406.851563 316.53125 408.355469 313.417969 409.355469 C 310.308594 410.347656 306.976563 410.847656 303.425781 410.847656 C 299.644531 410.847656 296.371094 410.347656 293.59375 409.355469 C 290.824219 408.355469 288.484375 406.796875 286.597656 404.683594 C 284.832031 402.578125 283.324219 400.359375 282.105469 398.019531 C 280.882813 395.695313 279.992188 393.304688 279.433594 390.851563 C 279.320313 390.085938 279.1875 389.332031 279.019531 388.621094 C 278.867188 387.890625 278.710938 387.144531 278.609375 386.363281 C 278.492188 385.582031 278.4375 384.835938 278.4375 384.109375 L 278.4375 379.363281 C 278.4375 378.925781 278.492188 378.476563 278.609375 378.03125 C 278.710938 377.59375 278.828125 377.144531 278.933594 376.707031 C 279.375 374.148438 280.191406 371.65625 281.347656 369.210938 C 282.523438 366.769531 284.039063 364.488281 285.9375 362.382813 C 287.816406 360.15625 290.21875 358.53125 293.097656 357.464844 C 295.992188 356.414063 299.417969 355.886719 303.425781 355.886719 C 307.648438 355.886719 311.390625 356.5 314.667969 357.714844 C 317.949219 358.933594 320.695313 360.710938 322.917969 363.042969 C 325.132813 365.484375 326.8125 368.292969 327.90625 371.457031 C 329.023438 374.625 329.574219 378.148438 329.574219 382.03125 M 112.003906 374.074219 L 174.960938 409.585938 L 174.960938 395.898438 L 125.378906 367.316406 L 174.960938 338.570313 L 174.960938 323.671875 L 112.003906 360.394531 Z M 68.039063 453.808594 L 52.390625 454.140625 C 47.492188 454.140625 43.085938 454.800781 39.136719 456.132813 C 35.203125 457.46875 31.734375 459.414063 28.730469 461.960938 C 25.738281 464.519531 23.179688 467.21875 21.066406 470.050781 C 18.960938 472.882813 17.292969 475.855469 16.078125 478.957031 C 15.515625 480.289063 15.015625 481.601563 14.570313 482.875 C 14.125 484.148438 13.796875 485.402344 13.570313 486.621094 C 13.347656 487.84375 13.183594 489.015625 13.070313 490.117188 C 12.960938 491.226563 12.90625 492.222656 12.90625 493.113281 L 12.90625 493.449219 C 12.90625 494.566406 12.960938 495.671875 13.070313 496.785156 C 13.183594 497.894531 13.347656 499.058594 13.570313 500.28125 C 13.796875 501.507813 14.078125 502.742188 14.402344 504.027344 C 14.746094 505.300781 15.121094 506.558594 15.570313 507.773438 C 16.679688 510.773438 18.207031 513.664063 20.148438 516.441406 C 22.09375 519.210938 24.453125 521.875 27.230469 524.429688 C 30.113281 526.984375 33.535156 528.921875 37.480469 530.257813 C 41.421875 531.585938 45.941406 532.316406 51.058594 532.421875 L 68.039063 532.421875 L 68.039063 517.933594 L 56.21875 518.261719 L 53.882813 518.261719 C 50.433594 518.261719 47.441406 517.847656 44.894531 517.027344 C 42.339844 516.1875 40.164063 514.882813 38.394531 513.109375 C 36.609375 511.324219 35.113281 509.472656 33.894531 507.523438 C 32.667969 505.582031 31.78125 503.554688 31.234375 501.449219 C 31.117188 501.105469 31 500.769531 30.890625 500.445313 C 30.78125 500.109375 30.675781 499.722656 30.5625 499.285156 C 30.5625 498.941406 30.507813 498.613281 30.398438 498.277344 C 30.285156 497.953125 30.238281 497.617188 30.238281 497.28125 C 30.238281 496.949219 30.203125 496.621094 30.140625 496.273438 C 30.097656 495.953125 30.0625 495.617188 30.0625 495.28125 L 30.0625 493.449219 C 30.0625 490.117188 30.476563 487.144531 31.3125 484.53125 C 32.140625 481.933594 33.398438 479.742188 35.066406 477.960938 C 36.722656 476.074219 38.476563 474.519531 40.304688 473.296875 C 42.144531 472.078125 44.054688 471.074219 46.054688 470.296875 C 46.933594 469.96875 47.835938 469.691406 48.726563 469.472656 C 49.597656 469.246094 50.488281 469.070313 51.382813 468.960938 C 52.261719 468.734375 53.101563 468.601563 53.882813 468.542969 C 54.65625 468.496094 55.441406 468.351563 56.21875 468.128906 L 68.039063 468.128906 Z M 73.875 478.292969 C 72.207031 483.070313 71.363281 488.5625 71.363281 494.785156 C 71.363281 500.667969 72.359375 506.019531 74.363281 510.855469 C 76.375 515.6875 79.421875 520.054688 83.53125 523.933594 C 87.535156 527.707031 92.019531 530.503906 97.019531 532.34375 C 102.019531 534.175781 107.460938 535.097656 113.34375 535.097656 C 118.449219 535.097656 123.089844 534.507813 127.257813 533.339844 C 131.425781 532.171875 135.257813 530.667969 138.171875 528.09375 C 155.476563 512.808594 154.730469 497.839844 154.730469 497.667969 L 140 495.765625 L 139.5 495.722656 L 139.328125 496.4375 L 139.105469 497.449219 C 138.113281 501.222656 137.191406 503.777344 135.914063 506.777344 C 134.632813 509.773438 132.746094 512.585938 130.765625 514.4375 C 128.648438 516.421875 127.710938 516.882813 124.65625 518.511719 C 121.804688 520.03125 117.90625 520.933594 113.34375 520.933594 C 109.121094 520.933594 105.382813 520.269531 102.097656 518.933594 C 98.828125 517.605469 96.078125 515.609375 93.847656 512.9375 C 91.636719 510.269531 89.9375 507.46875 88.78125 504.523438 C 87.609375 501.585938 87.03125 498.5 87.03125 495.28125 L 87.03125 494.785156 C 87.03125 491.226563 87.582031 487.777344 88.691406 484.453125 C 89.792969 481.121094 91.464844 477.960938 93.699219 474.957031 C 95.90625 471.960938 98.660156 469.691406 101.933594 468.128906 C 105.214844 466.574219 109.019531 465.800781 113.34375 465.800781 C 115.230469 465.800781 116.925781 465.917969 118.425781 466.136719 C 119.917969 466.355469 121.21875 466.742188 122.335938 467.296875 C 122.871094 467.5625 124.890625 468.71875 125.3125 469.019531 C 127.046875 470.238281 129.804688 473.527344 130.023438 473.640625 L 91.023438 495.78125 L 97.515625 507.445313 L 152.640625 477.632813 C 150.660156 474.070313 148.347656 470.738281 145.746094 467.628906 C 143.125 464.519531 140.21875 461.695313 137 459.132813 C 133.660156 456.589844 130.023438 454.660156 126.089844 453.394531 C 122.148438 452.117188 117.90625 451.480469 113.34375 451.480469 C 112.574219 451.480469 111.765625 451.507813 110.925781 451.546875 C 110.09375 451.613281 109.234375 451.703125 108.351563 451.808594 C 107.902344 451.917969 107.480469 452.007813 107.097656 452.058594 C 106.707031 452.117188 106.292969 452.144531 105.851563 452.144531 C 105.402344 452.257813 104.992188 452.335938 104.59375 452.394531 C 104.207031 452.445313 103.792969 452.53125 103.339844 452.640625 C 99.359375 453.632813 95.523438 455.257813 91.859375 457.46875 C 88.199219 459.691406 84.6875 462.523438 81.363281 465.964844 C 78.03125 469.40625 75.53125 473.523438 73.875 478.292969 M 164.480469 471.378906 C 162.917969 475.324219 162.15625 479.511719 162.15625 483.957031 L 162.15625 532.421875 L 176.636719 532.421875 L 176.636719 484.289063 C 176.964844 481.730469 177.605469 479.320313 178.554688 477.042969 C 179.496094 474.769531 180.8125 472.625 182.476563 470.628906 C 184.140625 468.628906 186.101563 467.132813 188.390625 466.136719 C 190.652344 465.132813 193.289063 464.632813 196.296875 464.632813 C 199.507813 464.632813 202.289063 465.1875 204.625 466.296875 C 206.953125 467.410156 208.847656 469.070313 210.285156 471.292969 C 211.722656 473.40625 212.8125 475.660156 213.535156 478.042969 C 214.25 480.433594 214.617188 482.847656 214.617188 485.289063 L 214.617188 532.421875 L 230.433594 532.421875 L 230.433594 480.957031 C 230.433594 476.960938 229.941406 473.40625 228.933594 470.296875 C 227.9375 467.183594 226.449219 464.574219 224.441406 462.464844 C 222.445313 460.246094 220.394531 458.363281 218.273438 456.808594 C 216.164063 455.257813 213.953125 453.972656 211.613281 452.972656 C 210.285156 452.417969 208.972656 451.976563 207.699219 451.640625 C 206.433594 451.308594 205.175781 451.039063 203.953125 450.8125 C 202.726563 450.59375 201.597656 450.417969 200.542969 450.3125 C 199.488281 450.191406 198.511719 450.148438 197.621094 450.148438 C 192.070313 450.148438 187.132813 451.003906 182.800781 452.722656 C 178.464844 454.441406 174.683594 456.980469 171.476563 460.304688 C 168.375 463.746094 166.03125 467.441406 164.480469 471.378906 M 308.722656 452.476563 L 294.226563 452.476563 L 294.226563 532.421875 L 308.722656 532.421875 L 308.722656 493.285156 C 308.722656 492.28125 308.777344 491.113281 308.898438 489.78125 C 308.898438 488.5625 309 487.28125 309.230469 485.957031 C 309.449219 484.617188 309.78125 483.230469 310.238281 481.777344 C 310.777344 479.90625 311.527344 478.042969 312.476563 476.207031 C 313.414063 474.378906 314.613281 472.625 316.050781 470.964844 C 317.601563 469.300781 319.496094 467.910156 321.71875 466.796875 C 323.929688 465.6875 326.605469 464.855469 329.714844 464.308594 L 333.714844 464.308594 L 333.714844 449.8125 L 328.382813 450.148438 C 326.480469 450.148438 324.707031 450.339844 323.054688 450.726563 C 321.382813 451.113281 319.878906 451.640625 318.539063 452.3125 C 317.117188 452.972656 315.859375 453.707031 314.816406 454.476563 C 313.746094 455.257813 312.78125 456.078125 311.890625 456.980469 C 311.554688 457.300781 311.222656 457.644531 310.882813 457.96875 C 310.566406 458.300781 310.273438 458.632813 310.0625 458.972656 C 309.71875 459.304688 309.46875 459.582031 309.304688 459.796875 C 309.132813 460.015625 308.949219 460.191406 308.722656 460.304688 Z M 354.777344 452.476563 L 340.28125 452.476563 L 340.28125 498.613281 C 340.28125 505.164063 341.09375 510.773438 342.699219 515.441406 C 344.308594 520.105469 346.726563 523.878906 349.945313 526.769531 C 353.171875 529.542969 356.828125 531.617188 360.929688 533.015625 C 365.050781 534.398438 369.539063 535.097656 374.433594 535.097656 C 379.421875 535.097656 383.9375 534.277344 387.925781 532.667969 C 391.925781 531.070313 395.410156 528.601563 398.421875 525.265625 C 401.40625 521.933594 403.667969 518.261719 405.164063 514.265625 C 406.664063 510.269531 407.410156 505.941406 407.410156 501.277344 L 407.410156 499.949219 C 407.398438 499.699219 407.410156 452.476563 407.410156 452.476563 L 392.757813 452.476563 L 392.757813 501.277344 C 392.753906 501.632813 392.394531 503.476563 392.34375 503.867188 C 392.285156 504.25 392.199219 504.667969 392.085938 505.105469 C 391.632813 507.101563 390.917969 509.027344 389.917969 510.855469 C 388.921875 512.6875 387.648438 514.429688 386.097656 516.097656 C 384.652344 517.773438 382.917969 518.988281 380.933594 519.757813 C 378.921875 520.546875 376.757813 520.933594 374.433594 520.933594 C 371.433594 520.933594 368.769531 520.488281 366.4375 519.59375 C 364.105469 518.710938 361.996094 517.378906 360.105469 515.609375 C 358.332031 513.722656 356.992188 511.585938 356.109375 509.191406 C 355.222656 506.804688 354.777344 504.054688 354.777344 500.941406 Z M 354.777344 452.476563 "/>
</g>
</g>
</svg>
